<?xml version="1.0" encoding="iso-8859-1"?>
<!-- Generator: Adobe Illustrator 18.0.0, SVG Export Plug-In . SVG Version: 6.00 Build 0)  -->
<!DOCTYPE svg PUBLIC "-//W3C//DTD SVG 1.1//EN" "http://www.w3.org/Graphics/SVG/1.1/DTD/svg11.dtd">
<svg version="1.1" id="Capa_1" xmlns="http://www.w3.org/2000/svg" xmlns:xlink="http://www.w3.org/1999/xlink" x="0px" y="0px"
	 viewBox="0 0 58 58" style="enable-background:new 0 0 58 58;" xml:space="preserve">
<g>
	<rect x="0" y="0" style="fill:#556080;" width="58" height="58"/>
	<g>
		<rect x="5" y="29" style="fill:#556080;" width="48" height="12"/>
		<path style="fill:#26B99A;" d="M54,42H4V28h50V42z M6,40h46V30H6V40z"/>
	</g>
	<g>
		<rect x="5" y="17" style="fill:#556080;" width="48" height="12"/>
		<path style="fill:#26B99A;" d="M54,30H4V16h50V30z M6,28h46V18H6V28z"/>
	</g>
	<g>
		<rect x="5" y="5" style="fill:#556080;" width="48" height="12"/>
		<path style="fill:#26B99A;" d="M54,18H4V4h50V18z M6,16h46V6H6V16z"/>
	</g>
	<g>
		<rect x="5" y="41" style="fill:#556080;" width="48" height="12"/>
		<path style="fill:#26B99A;" d="M54,54H4V40h50V54z M6,52h46V42H6V52z"/>
	</g>
</g>
<g>
</g>
<g>
</g>
<g>
</g>
<g>
</g>
<g>
</g>
<g>
</g>
<g>
</g>
<g>
</g>
<g>
</g>
<g>
</g>
<g>
</g>
<g>
</g>
<g>
</g>
<g>
</g>
<g>
</g>
</svg>
